<svg xmlns="http://www.w3.org/2000/svg" viewBox="0 0 1200 760" width="1200" height="760" role="img">
<defs>

<linearGradient id="steel" x1="0" y1="0" x2="0" y2="1">
  <stop offset="0" stop-color="#6b7280"/><stop offset=".45" stop-color="#4b5563"/>
  <stop offset="1" stop-color="#2a2f38"/></linearGradient>
<linearGradient id="steelLite" x1="0" y1="0" x2="0" y2="1">
  <stop offset="0" stop-color="#aeb6c2"/><stop offset="1" stop-color="#6b7280"/></linearGradient>
<linearGradient id="dark" x1="0" y1="0" x2="0" y2="1">
  <stop offset="0" stop-color="#31363f"/><stop offset="1" stop-color="#15181d"/></linearGradient>
<linearGradient id="rubber" x1="0" y1="0" x2="0" y2="1">
  <stop offset="0" stop-color="#3a3f47"/><stop offset=".5" stop-color="#23272d"/>
  <stop offset="1" stop-color="#131519"/></linearGradient>
<radialGradient id="studioD" cx=".5" cy=".42" r=".78">
  <stop offset="0" stop-color="#232a33"/><stop offset=".6" stop-color="#141920"/>
  <stop offset="1" stop-color="#0b0e13"/></radialGradient>
<radialGradient id="studioL" cx=".5" cy=".4" r=".8">
  <stop offset="0" stop-color="#ffffff"/><stop offset=".65" stop-color="#eef1f5"/>
  <stop offset="1" stop-color="#d7dce4"/></radialGradient>
<linearGradient id="skyG" x1="0" y1="0" x2="0" y2="1">
  <stop offset="0" stop-color="#9fc0d8"/><stop offset=".55" stop-color="#cfe0ea"/>
  <stop offset="1" stop-color="#e8eef2"/></linearGradient>
<radialGradient id="shadow" cx=".5" cy=".5" r=".5">
  <stop offset="0" stop-color="#000" stop-opacity=".55"/>
  <stop offset="1" stop-color="#000" stop-opacity="0"/></radialGradient>
<linearGradient id="glassG" x1="0" y1="0" x2="1" y2="1">
  <stop offset="0" stop-color="#dfeaf2" stop-opacity=".9"/>
  <stop offset="1" stop-color="#8fa6b8" stop-opacity=".75"/></linearGradient>
<linearGradient id="paint" x1="0" y1="0" x2="0" y2="1"><stop offset="0" stop-color="#ef4444"/><stop offset=".5" stop-color="#dc2626"/><stop offset="1" stop-color="#991b1b"/></linearGradient><linearGradient id="paintTop" x1="0" y1="0" x2="1" y2="0"><stop offset="0" stop-color="#ef4444"/><stop offset="1" stop-color="#dc2626"/></linearGradient>
</defs>
<rect width="1200" height="760" fill="#f4f6f9"/>
<text x="56" y="76" font-family="Arial,Helvetica,sans-serif" font-weight="800" font-size="34" fill="#0f172a">In the crate</text><text x="56" y="110" font-family="Arial,Helvetica,sans-serif" font-weight="500" font-size="19" fill="#475569">Everything below ships with every Titan 1000 HT</text><rect x="56" y="200" width="250" height="196" rx="14" fill="#fff" stroke="#d8dee7" stroke-width="2"/><g transform="translate(181,286)"><rect x="-64" y="-24" width="128" height="58" rx="8" fill="#dc2626"/><rect x="-64" y="-24" width="128" height="14" rx="7" fill="#ef4444"/><rect x="-16" y="-38" width="32" height="16" rx="7" fill="#3d434b"/><rect x="-44" y="-4" width="24" height="6" rx="3" fill="#c9ced6"/><rect x="-8" y="-4" width="40" height="6" rx="3" fill="#c9ced6"/></g><text x="181" y="372" text-anchor="middle" font-family="Arial,Helvetica,sans-serif" font-weight="700" font-size="16" fill="#0f172a">Tool &amp; spanner roll</text><rect x="330" y="200" width="250" height="196" rx="14" fill="#fff" stroke="#d8dee7" stroke-width="2"/><g transform="translate(455,286)"><path d="M-70 30 L10 -34 L44 -34 L-36 30 Z" fill="url(#steelLite)" stroke="#5c636d" stroke-width="2"/><path d="M-40 30 L40 -34 L74 -34 L-6 30 Z" fill="url(#steelLite)" stroke="#5c636d" stroke-width="2"/></g><text x="455" y="372" text-anchor="middle" font-family="Arial,Helvetica,sans-serif" font-weight="700" font-size="16" fill="#0f172a">Folding loading ramps</text><rect x="604" y="200" width="250" height="196" rx="14" fill="#fff" stroke="#d8dee7" stroke-width="2"/><g transform="translate(729,286)"><path d="M-64 -30 q64 40 128 0" fill="none" stroke="#ef4444" stroke-width="14"/><rect x="-18" y="6" width="36" height="30" rx="6" fill="#4b5563"/><rect x="-30" y="34" width="60" height="10" rx="5" fill="#3d434b"/></g><text x="729" y="372" text-anchor="middle" font-family="Arial,Helvetica,sans-serif" font-weight="700" font-size="16" fill="#0f172a">Ratchet transport straps</text><rect x="878" y="200" width="250" height="196" rx="14" fill="#fff" stroke="#d8dee7" stroke-width="2"/><g transform="translate(1003,286)"><path d="M-46 12 a46 40 0 0 1 92 0 z" fill="#f5b400"/><rect x="-52" y="12" width="104" height="12" rx="6" fill="#d19a00"/><rect x="-40" y="-30" width="80" height="12" rx="6" fill="#22262c"/></g><text x="1003" y="372" text-anchor="middle" font-family="Arial,Helvetica,sans-serif" font-weight="700" font-size="16" fill="#0f172a">Helmet, gloves &amp; ear kit</text><rect x="56" y="424" width="250" height="196" rx="14" fill="#fff" stroke="#d8dee7" stroke-width="2"/><g transform="translate(181,510)"><rect x="-44" y="-52" width="88" height="106" rx="6" fill="#fff" stroke="#94a3b8" stroke-width="2"/><rect x="-44" y="-52" width="88" height="26" rx="6" fill="#dc2626"/><rect x="-30" y="-14" width="60" height="6" rx="3" fill="#cbd5e1"/><rect x="-30" y="2" width="52" height="6" rx="3" fill="#cbd5e1"/><rect x="-30" y="18" width="44" height="6" rx="3" fill="#cbd5e1"/><rect x="-30" y="34" width="36" height="6" rx="3" fill="#cbd5e1"/></g><text x="181" y="596" text-anchor="middle" font-family="Arial,Helvetica,sans-serif" font-weight="700" font-size="16" fill="#0f172a">Printed UK manual</text><rect x="330" y="424" width="250" height="196" rx="14" fill="#fff" stroke="#d8dee7" stroke-width="2"/><g transform="translate(455,510)"><rect x="-66" y="-22" width="132" height="46" rx="23" fill="url(#rubber)" stroke="#5c636d" stroke-width="2"/><rect x="-56" y="14" width="13" height="9" rx="3" fill="#0c0e11"/><rect x="-34" y="14" width="13" height="9" rx="3" fill="#0c0e11"/><rect x="-12" y="14" width="13" height="9" rx="3" fill="#0c0e11"/><rect x="10" y="14" width="13" height="9" rx="3" fill="#0c0e11"/><rect x="32" y="14" width="13" height="9" rx="3" fill="#0c0e11"/><rect x="54" y="14" width="13" height="9" rx="3" fill="#0c0e11"/></g><text x="455" y="596" text-anchor="middle" font-family="Arial,Helvetica,sans-serif" font-weight="700" font-size="16" fill="#0f172a">Spare rubber track</text><rect x="604" y="424" width="250" height="196" rx="14" fill="#fff" stroke="#d8dee7" stroke-width="2"/><g transform="translate(729,510)"><rect x="-18" y="-44" width="36" height="76" rx="6" fill="#dc2626"/><rect x="-30" y="32" width="60" height="14" rx="6" fill="#3d434b"/><path d="M0 -44 l40 -18" stroke="#6b7280" stroke-width="8" stroke-linecap="round"/></g><text x="729" y="596" text-anchor="middle" font-family="Arial,Helvetica,sans-serif" font-weight="700" font-size="16" fill="#0f172a">Grease gun &amp; cartridge</text><rect x="878" y="424" width="250" height="196" rx="14" fill="#fff" stroke="#d8dee7" stroke-width="2"/><g transform="translate(1003,510)"><rect x="-56" y="-40" width="112" height="80" rx="9" fill="#fff" stroke="#ef4444" stroke-width="3"/><circle cx="0" cy="-6" r="20" fill="#ef4444"/><path d="M-9 -6 l7 8 l13 -16" stroke="#991b1b" stroke-width="5" fill="none" stroke-linecap="round"/><rect x="-34" y="20" width="68" height="7" rx="3" fill="#cbd5e1"/></g><text x="1003" y="596" text-anchor="middle" font-family="Arial,Helvetica,sans-serif" font-weight="700" font-size="16" fill="#0f172a">2-year parts warranty</text><text x="1144" y="718" text-anchor="end" font-family="Arial,Helvetica,sans-serif" font-weight="800" font-size="17" letter-spacing="3.5" fill="#0f172a" opacity=".38">ROOTVEXX</text>
</svg>
